<?xml version="1.0" encoding="utf-8"?>
<!-- Generator: Adobe Illustrator 25.0.0, SVG Export Plug-In . SVG Version: 6.00 Build 0)  -->
<svg version="1.1" id="Layer_1" xmlns="http://www.w3.org/2000/svg" xmlns:xlink="http://www.w3.org/1999/xlink" x="0px" y="0px"
	 viewBox="0 0 1361.38 4579.69" style="enable-background:new 0 0 1361.38 4579.69;" xml:space="preserve">
<style type="text/css">
	.st0{opacity:0.75;}
	.st1{fill:#D5D5D5;}
	.st2{fill:#BBBBBB;}
	.st3{fill:url(#SVGID_1_);}
	.st4{fill:url(#SVGID_2_);}
	.st5{fill:#22213E;}
	.st6{fill:#5B687A;}
	.st7{fill:#403F58;}
	.st8{fill:url(#SVGID_3_);}
	.st9{fill:url(#SVGID_4_);}
	.st10{fill:url(#SVGID_5_);}
	.st11{fill:url(#SVGID_6_);}
	.st12{fill:url(#SVGID_7_);}
	.st13{fill:url(#SVGID_8_);}
	.st14{fill:#0E0E0D;}
	.st15{fill:#675F58;}
	.st16{fill:#1E1E1E;}
	.st17{fill:#0D0D0D;}
	.st18{fill:url(#SVGID_9_);}
	.st19{fill:#090909;}
	.st20{fill:url(#SVGID_10_);}
	.st21{fill:#605E56;}
	.st22{fill:url(#SVGID_11_);}
	.st23{fill:url(#SVGID_12_);}
	.st24{fill:url(#SVGID_13_);}
	.st25{fill:url(#SVGID_14_);}
	.st26{fill:url(#SVGID_15_);}
	.st27{fill:url(#SVGID_16_);}
	.st28{fill:url(#SVGID_17_);}
	.st29{fill:url(#SVGID_18_);}
	.st30{fill:url(#SVGID_19_);}
</style>
<g id="_x32_MS2">
	<g class="st0">
		<ellipse class="st1" cx="821.43" cy="514.07" rx="69.45" ry="5.02"/>
		<ellipse class="st1" cx="763.02" cy="500.33" rx="69.45" ry="5.02"/>
		<ellipse class="st1" cx="717.98" cy="508.92" rx="57.55" ry="5.02"/>
		<ellipse class="st1" cx="746.44" cy="529.53" rx="44.79" ry="5.02"/>
		<ellipse class="st1" cx="760.46" cy="519.58" rx="69.45" ry="7.39"/>
		<ellipse class="st1" cx="760.46" cy="492.09" rx="69.45" ry="7.39"/>
		<ellipse class="st1" cx="801.15" cy="506.52" rx="69.45" ry="7.39"/>
	</g>
</g>
<g id="_x32_MS1">
	<g class="st0">
		<ellipse class="st2" cx="230.43" cy="352.58" rx="69.45" ry="5.02"/>
		<ellipse class="st2" cx="172.02" cy="338.83" rx="69.45" ry="5.02"/>
		<ellipse class="st2" cx="126.98" cy="347.42" rx="57.55" ry="5.02"/>
		<ellipse class="st2" cx="155.44" cy="368.04" rx="44.79" ry="5.02"/>
		<ellipse class="st2" cx="169.46" cy="358.08" rx="69.45" ry="7.39"/>
		<ellipse class="st2" cx="169.46" cy="330.6" rx="69.45" ry="7.39"/>
		<ellipse class="st2" cx="210.15" cy="345.03" rx="69.45" ry="7.39"/>
	</g>
</g>
<g id="_x32_M">
	
		<linearGradient id="SVGID_1_" gradientUnits="userSpaceOnUse" x1="501.5215" y1="-3144.333" x2="501.5215" y2="-3701.147" gradientTransform="matrix(1 0 0 1 0 4010)">
		<stop  offset="1.281415e-03" style="stop-color:#D5D5D5"/>
		<stop  offset="0.0526" style="stop-color:#C5C6C5"/>
		<stop  offset="0.2052" style="stop-color:#9A9D9C"/>
		<stop  offset="0.3605" style="stop-color:#777B7A"/>
		<stop  offset="0.5168" style="stop-color:#5C6160"/>
		<stop  offset="0.6745" style="stop-color:#484E4D"/>
		<stop  offset="0.8344" style="stop-color:#3D4342"/>
		<stop  offset="1" style="stop-color:#393F3E"/>
	</linearGradient>
	<path class="st3" d="M978.16,727.89c10.9-0.68,19.25-9.94,28.44-16.02c7.16-4.73,3.98-9.84-0.33-15.18
		c-5.33-6.6-12.19-10.09-18.47-14.71c0.21-0.65,0.43-1.28,0.63-1.96c-0.17-2.81-1.03-5.39-1.75-8.02c-0.83-1.6-1.92-2.86-3.28-3.77
		c-6.86-4.56-12.79-13.82-21.97-6.49c-7.74-5.94-15.48-11.89-23.22-17.83c-5.8-4.77-11.6-9.54-17.39-14.31
		c-1.94,0.01-3.88,0.02-5.82,0.02l0,0l0,0c-10.01-10.57-19.7-21.7-31.9-28.58c-15.96-6.16-28.9-19.27-43.53-28.5
		c-18.29-10.94-28.51-34.37-47.21-45.14c-12.96-7.46-26.71-13.25-38.23-24.71c-2.94-2.92-7.42-5.58-11.4-3.53
		c-1.64-1.69-3.34-3.27-5.03-4.89c-5.78-2.75-12.57-2.26-17.37-8.08c-15.61-18.91-36.77-25.52-55.4-37.74
		c-0.44-0.29-0.88-0.55-1.31-0.78c-1.05-1.26-2.25-2.39-3.65-3.33c-5.45-2.82-10.04-7.13-14.08-12.38
		c-19.28-3.59-31.47-21.21-45.67-34.84c-1.92-1.84-4.12-2.99-6.38-3.99c-20.79-9.28-40.01-22.58-59.49-35.12
		c-23.41-10.52-47.51-17-72.05-8.46c-27.31,9.5-54.66,13.82-82.7,7.99c-22.34-4.64-44.77-8.34-67.35-10.01
		c-5.42-0.4-13-3.59-16.45,2.89c-1.22-0.46-2.49-0.89-3.85-1.24c-11.56,8.83-25.77,1.34-37.48,9.24c-1.42-1.81-3.37-2.69-5.76-2.81
		c-12.79,1.83-24.03-8.94-36.85-6.73c-0.15,0.44-0.31,0.83-0.47,1.24c-10.04-10.11-21.19-12.1-33.46-5.74
		c-32.34-0.59-64.47-3.98-94.84-18.46c-29.71-14.17-59.26-24.59-90.88-10.08c0,17.83,0,35.65,0,53.48c0,9.51,0,19.01,0,28.52
		c0,14.26,0,28.52,0,42.78c0,3.57,0,7.13,0,10.7c15.28,4.84,30.26,11.61,46.42,10.72c5.77,0.1,11.56-0.06,17.32,0.34
		c17.72,1.23,33.95,13.89,52.31,10.31c3.11-3.06,6.65-2.17,9.54-0.31c10.2,6.57,21.02,8.15,32.35,9.82
		c15.16,2.23,30.19-0.54,45.73,2.9c12.54,2.77,27.37,0.37,41.21-3.76c0.22,0.42,0.42,0.84,0.61,1.26
		c13.75,15.99,29.36,26.81,48.86,26.99c5.99,0.05,11.52,1.49,15.83,7.11c18.81,16.96,36.72,36.04,57.89,48.15
		c19.51,11.16,40.2,19.04,56.32,37.77c3.13,3.64,7.17,6.05,11.43,7.37c17.87,5.51,32.01,18.43,44.92,33.85
		c1.32,0.28,2.64,0.74,3.97,1.22c0.38,10.23,2.46,18.94,15.33,18.58c3.57-0.1,5.87,3.81,7.88,7.16
		c4.64,7.75,11.12,11.56,18.62,11.78c1.44,0.04,2.82,0.2,4.15,0.46c0.42,0.2,0.85,0.39,1.31,0.58c1.57,0.63,2.97,1.01,4.24,1.2
		c5.36,2.48,9.78,6.94,13.57,13.05c3.34,5.4,7.74,8.79,13.16,10.16c0.96,0.02,1.91,0.04,2.87,0.05l0,0
		c13.29,14.56,28.21,26.71,42.16,40.16c10.11,9.74,20.1,23.83,33.79,25.96c20.94,3.25,35.69,22.28,55.02,29.67
		c7.2,2.75,14.26,12.86,17.81,21.77c6.21,15.62,10.19,31.77,28.74,22.72c1.49-0.73,4.16,0.08,5.51,1.38
		c16.13,15.47,35.06,3.16,52.2,8.16c1.79,1.44,4.58,1.78,5.2-0.08c3.49-10.43,10.76-15.28,18-20.23c0.25,0.43,0.6,0.75,1.1,0.92
		c0.62,0.92,0.52,1.75-0.24,2.31c-1.5,14.46,6.97,24.09,21.83,24.79c10.93,0.51,21.4-2.47,31.79-6.13c0.99-0.59,1.91-0.79,2.78-0.75
		c1.67,2.84,3.69,4.8,6.9,3.81c1.59,1.07,3.24,1.79,5.14,1.17c7.33-5.63,20.12-3.84,18.99-21.05c-0.24-2.06-0.58-4.08-1-6.05
		c2.65,2.18,5.29,1.73,8.12,0.26c14.07-7.31,25.67-19.59,38.58-29.22c1.53,0.52,3.07,1.1,4.6,1.79c2.4,0.49,4.79-0.21,7.18-0.19
		c1.91-1.01,4.01-1.56,6.02-2.29c0.65,0.27,1.29,0.53,1.94,0.8c9.26-11.73,21.01-6.37,31.88-7.02c0.85-4.86,2.72-9,5.75-12.32
		c0.13-0.8,0.25-1.59,0.38-2.39c-0.11-1.02-0.23-2.04-0.37-3.06l0,0c0.85-11.17-2.59-18.71-10.96-24.29
		c-7.51-5.01-13.99-12.34-20.93-18.65l0,0C971.71,734.66,963.62,728.81,978.16,727.89z"/>
</g>
<g id="lake">
	
		<linearGradient id="SVGID_2_" gradientUnits="userSpaceOnUse" x1="1093.0093" y1="-3209.6797" x2="1093.0093" y2="-3591.5112" gradientTransform="matrix(1 0 0 1 0 4010)">
		<stop  offset="0" style="stop-color:#D5D5D5"/>
		<stop  offset="0.1305" style="stop-color:#D0CDCE;stop-opacity:0.9869"/>
		<stop  offset="0.3378" style="stop-color:#C4B6BA;stop-opacity:0.9662"/>
		<stop  offset="0.5958" style="stop-color:#AF9099;stop-opacity:0.9404"/>
		<stop  offset="0.892" style="stop-color:#935D6C;stop-opacity:0.9108"/>
		<stop  offset="1" style="stop-color:#88485A;stop-opacity:0.9"/>
	</linearGradient>
	<path class="st4" d="M1367.23,519.05c0-7.13,0-14.27,0.01-21.4c0-7.12,0-14.25-0.01-21.37l0,0c0-7.13,0.01-14.26,0.01-21.4
		c-27.85-0.76-55.62,7.6-83.54,1.04c-3.11-0.73-7.54,1.85-8.66-3.39c-1.37-6.45,3.62-7.3,7.1-8.68c5.14-2.04,9.75-4.88,13.03-10.35
		c4.26-1.05,8.56-1.9,12.76-3.22c2.71-0.85,6.61-1.49,6.5-5.72c-0.15-5.85-4.71-5.01-7.81-5.09c-17.35-0.43-34.73-1.58-52.04-0.59
		c-30.35,1.75-60.76,3.78-90.52,12.25c-10.74,3.06-21.79-5.24-33.04,1.58c3.75,5.44,7.05,10.24,10.35,15.03
		c13.77-1.48,27.29-2.96,39.89,7.55c3.89,3.25,10.12,2.87,15.31,3.02c5.9,0.16,11.43,1.28,16.49,4.47
		c-6.05,7.94-14.36,9.85-22.4,9.1c-14.15-1.32-27.68,4.74-41.75,3.42c-5.93-0.56-11.87,1.53-13.57,10.2
		c-2.35,11.98-9.91,14.9-18.29,17.06c-12.36,3.19-24.81,4.46-37.42,4.14c-7.22-0.18-14.31,0.24-21.31,3.73
		c-23.98,11.96-49.76,9.16-74.76,12.39c-9.48,1.22-16.2,4.48-14.73,15.87c2.29,17.72-7.1,20.67-16.11,19.29
		c-24.95-3.82-48.59,7.73-73.2,7.18c-10.47-0.23-18.74-2.05-24.97-13.36c-4.53-8.21-23.05-13.01-30.36-8.91
		c-4.01,2.25-7.15,8.01-4.48,11.19c6.32,7.52,5.37,20.67,14.16,25.68c10.46,7.36,21.18,14.19,31.61,21.65
		c5.24,3.74,10.65,8.77,17.3,5.78c0.3,2.79,1.36,5.15,3.64,6.02c11.09,4.24,18.35,16.01,28.97,20.88c0.83-0.13,1.58-0.41,2.26-0.82
		c3.84,10.24,11.11,14.56,20.2,15.75c0.35-0.17,0.69-0.36,1.03-0.55c2.54,12.2,10.93,18.12,24.05,16.73
		c0.35-0.5,0.71-0.96,1.07-1.41c4.96,3.98,9.92,7.95,14.88,11.93c0.94,0.11,1.88,0.2,2.82,0.28l0,0c0.98,1.17,1.97,2.33,2.95,3.5
		c1.51,6.02,2.09,12.03,7.13,16.44c6.8,5.94,3.74,12-2.03,16.59c-3.25,2.58-6.82,4.2-10.6,5.24c-18.19,4.99-19.73,10.76-7.89,29.46
		c12.65,11.85,27.67,20.73,33.77,40.72c0.81,1.58,1.92,2.8,3.3,3.59c9.82,5.23,20.54,5.89,30.85,8.78
		c4.83-2.12,8.55-5.89,11.14-11.34c1.62-5.07,4.73-8.81,7.55-12.78c0.35-0.39,0.66-0.72,0.99-1.09c4.64,0.51,8.31-6.35,12.86-6.49
		c3.98,2.19,7.96,4.37,11.94,6.56l0,0l0,0l-0.33,0.65c20.38,6.64,41.78-8.91,49.26-35.8c1.61-8.05,6.07-12.56,12.26-14.92
		c0,0,0,0,0-0.01c0,0,0,0,0.01,0c3.92-3.4,6.06-8.42,8.06-13.55c0.72-0.19,1.44-0.35,2.17-0.48c4.15-4.01,9.16-7.05,10.69-14.06
		c-0.02-0.78-0.08-1.54-0.13-2.29c0.61-0.36,1.21-0.72,1.82-1.08c0.16-12.87,9.68-22.31,8.64-35.62l0,0
		c3.94-10.81,12.71-13.37,20.31-17.95c12.85-12.01,25.28-24.86,40.73-31.86l0,0c12.92-8.95,28.55-12.35,39.31-25.73
		c1.19-0.88,2.36-1.81,3.51-2.8c0.55-0.43,1.08-0.89,1.6-1.37c4.66,4.26,9.56,3.48,14.46,0.73c14.4-8.08,29.66-13.39,43.71-22.86
		c11.25-7.59,21.46-15.47,27.56-29.73C1367.27,524,1367.25,521.52,1367.23,519.05z"/>
</g>
<g id="SmallMRS">
	<path class="st5" d="M482.55,745.66c-3.56,2.03-5.41-0.3-7.46-1.64c-3.51-2.29-7.43-4.83-10.17,0.56
		c-2.21,4.35,0.94,7.64,3.19,10.75c5.76,7.95,11.81,15.62,17.14,23.98c5.98,9.36,7,17.59-3.84,24
		c-17.59,10.4-30.66,2.81-33.43-20.74c-0.77-6.55-1.55-12.93-4.71-18.45c-3.65-6.37-6.94-14.78-13.85-3.82
		c-1.92,3.04-4.76,4.81-7.63,2.71c-3.75-2.74-0.83-5.98,0.22-9.03c3.09-8.93-0.68-13.63-7.1-15.86c-6.87-2.39-8.03-7.75-5.89-15
		c2.24-7.61,7.64-13.74,13.23-9.45c16.55,12.68,34.99,15.57,53.43,19.54C480.16,734.19,483.36,738.15,482.55,745.66z"/>
	<path class="st5" d="M447.81,839.96c-1.93,1.19-3.86,2.38-5.8,3.57c-4.84,0-9.68,0-14.52,0c-3.68-6.37-7.51-11.45-14.81-12.42
		c-13.28-1.77-16-8.75-10.82-24.15c7.11-21.13,4.94-25.19-14.01-25.06c-5.54,0.04-11.89,0.78-12.28-7.96
		c-0.47-10.44,6.7-6.93,11.65-7.48c14.95-1.66,25.42,6.04,34.42,20.61c7.7,12.46,16.96,23.15,14.83,40.74
		C435.13,838.86,440.51,840.85,447.81,839.96z"/>
	<path class="st5" d="M302.71,793.61c9.75,0.31,19.66-1.38,29.04,3.52c0.97,1.2,1.93,2.39,2.9,3.59
		c9.76,13.69,23.42,19.68,36.08,27.65c2.65,1.67,7.95,0.82,6.3,7.04c-1.22,4.61-5.48,3.64-8.83,3.69
		c-8.7,0.13-15.75-9.46-24.94-6.31c-7.2,1.19-13.16,1.11-16.44-9.73c-3.46-11.46-13.31,1.71-18.6-5.44
		C301.08,811.45,294.53,805.08,302.71,793.61z"/>
	<path class="st6" d="M1054.2,772.1c5.84-1.16,11.67-2.31,17.51-3.47c-5.79,5.98-11.58,11.95-17.38,17.93
		c-1.8-1.08-3.59-2.16-5.38-3.24C1050.7,779.59,1052.45,775.85,1054.2,772.1z"/>
	<path class="st6" d="M1039.82,790.12c-8.4,4.37-15.92,13.57-26.28,7.25c-2.09-3.41-8.5-3.24-5.82-10.6l0.47-0.73
		C1018.46,790.65,1029.19,789.74,1039.82,790.12z"/>
	<path class="st7" d="M1007.72,786.77c1.94,3.53,3.88,7.06,5.82,10.6c-3.83,1.13-7.65,2.25-11.48,3.37
		C994.91,790.55,998.68,787.04,1007.72,786.77z"/>
	
		<linearGradient id="SVGID_3_" gradientUnits="userSpaceOnUse" x1="1261.1847" y1="-3298.4199" x2="1261.1847" y2="-3483.53" gradientTransform="matrix(1 0 0 1 0 4010)">
		<stop  offset="1.281415e-03" style="stop-color:#D5D5D5"/>
		<stop  offset="0.0526" style="stop-color:#C5C6C5"/>
		<stop  offset="0.2052" style="stop-color:#9A9D9C"/>
		<stop  offset="0.3605" style="stop-color:#777B7A"/>
		<stop  offset="0.5168" style="stop-color:#5C6160"/>
		<stop  offset="0.6745" style="stop-color:#484E4D"/>
		<stop  offset="0.8344" style="stop-color:#3D4342"/>
		<stop  offset="1" style="stop-color:#393F3E"/>
	</linearGradient>
	<path class="st8" d="M1283.51,576.01c-0.29,0.08-0.58,0.16-0.87,0.24c-0.64-0.04-1.28-0.08-1.92-0.11
		c-13.23,15.26-33.51,11.31-46.93,26.03c-16.25,8.45-32.43,17.03-43.18,35.58c0,0.14,0,0.29,0,0.43
		c-9.84-2.24-15.23,2.96-19.18,17.55c-0.69,5.76-1.35,11.24-4.64,16.19c-3.98,5.98-4.91,12.46-1.51,18.56
		c-1.4,2.05-2.29,4.59-3.67,6.66c-2.18,4.65-4.35,9.3-6.53,13.95c9-3.23,18-6.36,26.88,0.49c0.1-7.35-0.28-14.79,3.03-21.45
		c11.42,0.15,23.53,3.44,31.83-10.56l0,0c0.88-0.05,1.75-0.12,2.63-0.21c5.88-0.2,9.56-3.83,12.26-10.27c2.6-6.18,5.9-4.49,8.7,0.4
		c8.26,14.42,15.19,15.39,25.53,2.1c4.42-5.69,9.37-9.87,14.69-13.77l0,0l0,0c7.19-9.19,19.21-10.6,25.03-21.99
		c11.35-0.14,15.97-10.22,19.61-20.96c1.68-4.96-2.06-13.52,3.7-15.39c7.64-2.48,3.74,10.84,9.17,12.74
		c0.45,0.16,0.87,0.48,1.3,0.67c11.24,0.45,21.58-1.58,27.78-15.12c0.02-23.77,0.04-47.53,0.07-71.3
		C1340.59,546.12,1312.45,562.1,1283.51,576.01z"/>
</g>
<g id="skysmoke">
	<g class="st0">
		<ellipse class="st2" cx="1137.13" cy="190.18" rx="92.26" ry="7.19"/>
		<ellipse class="st2" cx="1330.13" cy="189.21" rx="85.7" ry="6.26"/>
		<ellipse class="st2" cx="1195.02" cy="211.21" rx="76.52" ry="7.19"/>
		<ellipse class="st2" cx="1333.82" cy="208.74" rx="50.21" ry="4.72"/>
		<ellipse class="st2" cx="1361.52" cy="216.03" rx="50.21" ry="4.72"/>
		<ellipse class="st2" cx="1258.44" cy="170.96" rx="50.21" ry="6.84"/>
		<ellipse class="st2" cx="1309.02" cy="175.26" rx="50.21" ry="4.72"/>
		<ellipse class="st2" cx="1279.86" cy="199.55" rx="127.87" ry="10.22"/>
		<ellipse class="st2" cx="1255.81" cy="185.81" rx="127.87" ry="10.22"/>
	</g>
</g>
<g id="_x34_M">
	
		<linearGradient id="SVGID_4_" gradientUnits="userSpaceOnUse" x1="679.9619" y1="-3543.0225" x2="679.9619" y2="-3867.0256" gradientTransform="matrix(1 0 0 1 0 4010)">
		<stop  offset="0" style="stop-color:#E1E1E1"/>
		<stop  offset="0.1822" style="stop-color:#C0C5C7"/>
		<stop  offset="0.4212" style="stop-color:#9CA5AB"/>
		<stop  offset="0.6446" style="stop-color:#828F96"/>
		<stop  offset="0.8442" style="stop-color:#728189"/>
		<stop  offset="1" style="stop-color:#6C7C85"/>
	</linearGradient>
	<path class="st9" d="M1367.23,397.84c0.12-4.96,1.85-10.27-2.06-14.35l0,0c0.69-3.49,1.38-6.99,2.07-10.48c0-5.94,0-11.89,0-17.83
		c-0.01-9.53-0.01-19.06-0.02-28.59c-2.91-4.52-4.78-9.91-10.32-11.5c-20.15-5.8-40.27-12.21-60.57-16.65
		c-10.13-2.22-23.55-4.32-29.44,13.07c0.08,0.29,0.16,0.55,0.24,0.82c-7.23,0.09-14.31-1.21-21.29-3.58l0,0l0,0
		c-3.87,2.13-7.75,3.12-11.62-0.01c-0.97-1.2-1.94-2.41-2.91-3.61c-12.44-3.18-25.03-4.17-37.71-3.52
		c-8.67-0.21-17.56,1.04-25.97-0.87c-55.41-12.58-111.63-17.82-167.26-28.33c-30.39-5.74-61.29-7.48-91.2-17.13
		c-23.1-4.75-47.33,1.49-69.68-10.69c-1.56-0.98-3.13-1.97-4.69-2.95c0.23-0.2,0.45-0.39,0.68-0.6c0.6-4.69-0.85-9.19-4.37-9.91
		c-15.87-3.23-29.65-14.57-45.2-18.88c-0.01-0.66-0.02-1.32-0.03-1.99c-14.49-3.02-28.99,0.76-43.49-0.04
		c0.54,0.46,1.07,0.88,1.61,1.28c-5.26-0.81-10.4-2.98-15.32-7.65c-2.13-1.36-4.4-1.93-6.8-1.62c-3.36,0.29-5.36,3.67-8,5.59
		c0.02-0.14,0.04-0.27,0.05-0.41c-2.32-12.22-10.71-9.85-17.53-10.76c-23.44-3.11-47.37-2.24-70.02-11.58
		c-10.39-4.28-20.28-5.88-30.61-1.02c-31.47,0.11-61.35-12.59-92.2-17.46c-0.01-0.54-0.03-1.07-0.09-1.57
		c-1.41-4.73-4.11-6.4-8.21-7.66c-8.05-2.48-16.34-2.9-24.33-5.46c-48.83-12.88-97.24-12.91-145,7.12l0,0
		c-8.63,1.34-16.24,7.04-25.17,7.76c-37.5,3.05-74.93,8.01-112.46,9.83c-27.57,1.34-55.66,8.13-82.8-3.84
		c-14.45-6.37-29.36-5.27-44.16-7.19c-23.4-3.05-46.07,3.96-69.14,4.09c0,21.39,0,42.78,0,64.17c2.74,3.29,5.26,6.78,9.36,7.86
		c48.22,12.73,96.8,18.48,146.16,13.8c22.79-2.16,41.1-19.77,62.81-25.16c17.25-7.64,35.83-5.8,53.38-11.38
		c12.99-2.68,26.07-1.42,39.11-1.55c12.76-0.6,24.59,4.06,36.4,9.3c11.16,4.95,22.1,10.77,33.75,13.88c1.54-0.55,3.08-1.13,4.6-1.56
		c7.44,4.6,15.12,8.32,23.6,9.11c8.24,9.37,16.72,18.05,29.18,14.51c14.48-4.1,27.9-0.14,40.03,9.4
		c17.59,13.83,37.8,20.41,56.19,31.97c4.85,3.05,10.05,5.13,13.89-2.44c57.62,13.82,114.17,33.17,171.22,49.93
		c9.04,4.05,18.23,4.19,27.52,1.75c-0.01,0.6,0.49,1.19,1.51,1.78c8.7,5.94,17.41,11.88,26.11,17.83c0.74,1,1.48,1.23,2.21,0.71
		c1.68,4.1,4.31,7.01,8.06,8.43c26.59,10.07,52.09,24.47,79.44,31.38c16.17,4.09,32.03,9.48,47.97,14.43
		c16.73-2.73,33.06,1.98,49.54,3.99c11.57,1.41,22.77,5.84,34.36,6.58c50.33,3.22,100.77,4.46,150.78,13.04
		c1.59-0.21,3.01-0.91,4.26-2.22c2.16-5.68,5.04-8.31,10.78-9.21c36.54-5.75,73.09-11.26,109.94-12.58
		c7.92-0.28,15.88,0.38,23.83-0.16c-7.53,2.47-11.95,10.28-16.94,16.59c-5.28,6.69-4.48,17.77,2.6,18.17
		c13.13,0.74,26.3,9.14,39.36,2.28c5.65-2.96,10.01-2.26,15.76-0.59c13.44,3.88,27.04,4.05,38.25-8.83c0-4.76-0.01-9.51-0.01-14.27
		c0.01-11.87,0.02-23.74,0.03-35.61C1367.25,402.62,1367.24,400.23,1367.23,397.84z M1291.9,426.52c-0.21,0-0.43,0.04-0.65,0.09
		c-0.01-0.06,0.15-0.11,0.71-0.14C1293.41,426.37,1293.4,426.52,1291.9,426.52z"/>
</g>
<g id="_x34_MS2">
	<g class="st0">
		<ellipse class="st1" cx="891.09" cy="282.36" rx="92.26" ry="7.19"/>
		<ellipse class="st1" cx="1084.09" cy="281.39" rx="85.7" ry="6.26"/>
		<ellipse class="st1" cx="948.98" cy="303.39" rx="76.52" ry="7.19"/>
		<ellipse class="st1" cx="1087.79" cy="300.92" rx="50.21" ry="4.72"/>
		<ellipse class="st1" cx="1115.48" cy="308.21" rx="50.21" ry="4.72"/>
		<ellipse class="st1" cx="1128.27" cy="303.52" rx="50.21" ry="4.72"/>
		<ellipse class="st1" cx="1033.82" cy="291.73" rx="127.87" ry="10.22"/>
	</g>
</g>
<g id="_x34_MS1">
	<g class="st0">
		<ellipse class="st2" cx="682.74" cy="215.12" rx="103.76" ry="5.86"/>
		<ellipse class="st2" cx="621.06" cy="198.69" rx="103.24" ry="12.77"/>
		<ellipse class="st2" cx="718.77" cy="222.63" rx="60.02" ry="6.18"/>
		<ellipse class="st2" cx="695.22" cy="206.37" rx="156.73" ry="8.77"/>
		<ellipse class="st2" cx="730.01" cy="187.03" rx="61.47" ry="6.32"/>
		<ellipse class="st2" cx="723.14" cy="212.8" rx="61.47" ry="6.32"/>
		<ellipse class="st2" cx="758.98" cy="198.22" rx="81.82" ry="8.42"/>
	</g>
</g>
<g id="_x33_MS2">
	<g class="st0">
		<ellipse class="st1" cx="757.09" cy="384.39" rx="92.26" ry="7.86"/>
		<ellipse class="st1" cx="950.08" cy="383.33" rx="85.7" ry="6.84"/>
		<ellipse class="st1" cx="814.98" cy="407.37" rx="76.52" ry="7.86"/>
		<ellipse class="st1" cx="953.78" cy="404.67" rx="50.21" ry="5.16"/>
		<ellipse class="st1" cx="981.48" cy="412.63" rx="50.21" ry="5.16"/>
		<ellipse class="st1" cx="994.26" cy="407.51" rx="50.21" ry="5.16"/>
		<ellipse class="st1" cx="899.82" cy="394.63" rx="127.87" ry="11.17"/>
	</g>
</g>
<g id="_x33_MS1">
	<g class="st0">
		<ellipse class="st1" cx="30.38" cy="213.65" rx="127.61" ry="15.26"/>
		<ellipse class="st1" cx="214.16" cy="222.29" rx="118.54" ry="13.29"/>
		<ellipse class="st1" cx="27.28" cy="256.49" rx="105.84" ry="15.26"/>
		<ellipse class="st1" cx="233.53" cy="253.03" rx="69.45" ry="10.02"/>
		<ellipse class="st1" cx="320.41" cy="222.9" rx="69.45" ry="10.02"/>
		<ellipse class="st1" cx="144.63" cy="238.5" rx="176.86" ry="14.94"/>
		<ellipse class="st1" cx="221.65" cy="219.16" rx="69.45" ry="10.02"/>
		<ellipse class="st1" cx="262.33" cy="206.11" rx="69.45" ry="10.02"/>
	</g>
</g>
<g id="_x33_M">
	
		<linearGradient id="SVGID_5_" gradientUnits="userSpaceOnUse" x1="604.5676" y1="-3434.3811" x2="604.5676" y2="-3804.6499" gradientTransform="matrix(1 0 0 1 0 4010)">
		<stop  offset="0" style="stop-color:#E1E1E1"/>
		<stop  offset="0.0726" style="stop-color:#C9CBCC"/>
		<stop  offset="0.2166" style="stop-color:#A1A4A7"/>
		<stop  offset="0.3644" style="stop-color:#7F8488"/>
		<stop  offset="0.5146" style="stop-color:#646B70"/>
		<stop  offset="0.6681" style="stop-color:#52595F"/>
		<stop  offset="0.8271" style="stop-color:#474E55"/>
		<stop  offset="1" style="stop-color:#434B52"/>
	</linearGradient>
	<path class="st10" d="M1203.23,450.1c-10.74-0.87-20.61-4.8-30.68-9.37c-10.8-4.89-22.06-3.83-31.18,7.02l-0.02,0.04l0,0l0,0
		c-17.91-4.25-34.52-15.93-53.53-13.88c-35.76,3.84-71.13-4.04-106.61-6.8c-25.89-2.02-51.57-9.11-77.8-7.83
		c-3.32-0.56-6.99-0.16-9.89-1.82c-26.17-15.01-55.66-16.31-82.09-31.2c-12.29-6.92-26.1-12.2-40.26-13.31
		c-0.03-0.32-0.06-0.63-0.1-0.96c-6.32-13.86-16.81-19.58-28.84-22.24c-10.63,1.77-19.48-7.24-29.8-7.38
		c-53.27-15.93-105.89-35.27-160.09-46.36c-4.71-0.96-9.41-3.19-13.89,0.8c-0.47,0.82-0.96,1.62-1.46,2.39
		c-18.48-11.55-38.7-18.31-56.66-31.55c-11.39-8.4-23.22-18.67-37.64-15.67c-12.76,2.65-24.97,0.93-37.16-2.59
		c-0.62-1.49-1.35-3.01-2.22-4.54c-10.39,1.88-17.06-10.82-27.09-10.41c-0.62,0.62-1.25,1.23-1.9,1.84
		c-0.66-0.81-1.32-1.63-1.97-2.44c-20.57-15.34-43.82-21.23-66.68-28.49c-14.33,4.92-29.27-1.47-43.6,3.54
		c-16.82,7.91-35.16,4.59-52.23,10.69c-6.83-0.04-13.77,0.25-19.37,5.62C152.39,261.73,108,246.03,66.3,245.27
		c-24.41-0.44-49.07-10.16-74.1-11.41c0,27.33,0,54.67,0,82c3.38,4.85,7.18,7.07,12.69,5.22c23.58-7.89,46.3-1,67.55,10.2
		c24.45,12.89,49.99,17.14,75.8,19.51c10,0.92,21.57,7.19,30.85-4.25c0.08-0.51,0.12-0.95,0.18-1.43
		c10.69,5.54,21.99,6.63,33.46,6.42c11.35,4.88,22.85,8.98,34.85,10.65l0,0l0,0c2.9,0.02,5.79,0.03,8.69,0.04
		c12.83,2.85,25.55,3.99,37.73-3.57c4.86-3.35,10.07-3.57,15.46-2.85c24.44,3.26,48.83,6.68,73.08,11.9
		c23.61,5.08,48.45,4.41,70.19-5c28.9-12.51,54.97-4.39,82.12,3.09c8.05,8.52,16.75,15.52,26.73,20.51
		c18.71,9.35,37.45,18.94,53.24,34.97c8.3,8.43,17.6,14.35,27.4,19.39l0,0c2.9,5.15,7.18,8.04,11.61,10.69
		c18.74,14.95,41.48,20.42,59.12,38.31c6.08,6.17,13.8,10.47,22.13,11.62c0.97,1.18,1.94,2.37,2.9,3.55
		c23.16,15.05,48.25,25.97,69.09,45.86c10.07,9.62,20.74,16.63,32.48,21.86c-4.64-6.56-9.27-13.11-15.24-21.55
		c11.31,0.2,20.23-1.73,26.22,12.15c4.31,10,13.69,13.44,22.73,12.24c32.4-4.27,64.83-7.83,97.36-10.24
		c14.16-1.05,15.91-7.12,7.99-22.66c-2.19-4.31-4.81-10.61,1.68-9.45c21.46,3.83,41.68-5.04,62.52-6.99
		c13.48-1.26,24.93-12.9,39.23-10.68c17.98,2.79,35.4-4.8,53.24-5.8c6.06-0.34,11.94-2.67,8.49-13.39
		c-2.39-7.41,0.86-13.39,6.46-11.64c13.72,4.29,26.35-4.17,39.96-3.06c9.41,0.76,23.7,4.09,26.61-15.86
		C1218.01,452.89,1210.92,450.72,1203.23,450.1z"/>
</g>
<g id="_x31_MS">
	<g class="st0">
		<ellipse class="st2" cx="99.1" cy="469.64" rx="127.61" ry="15.26"/>
		<ellipse class="st2" cx="282.88" cy="478.27" rx="118.54" ry="13.29"/>
		<ellipse class="st2" cx="96" cy="512.48" rx="105.84" ry="15.26"/>
		<ellipse class="st2" cx="302.25" cy="509.01" rx="69.45" ry="10.02"/>
		<ellipse class="st2" cx="389.13" cy="478.89" rx="69.45" ry="10.02"/>
		<ellipse class="st2" cx="213.35" cy="494.49" rx="176.86" ry="14.94"/>
		<ellipse class="st2" cx="290.37" cy="475.15" rx="69.45" ry="10.02"/>
		<ellipse class="st2" cx="331.05" cy="462.1" rx="69.45" ry="10.02"/>
	</g>
</g>
<g id="_x31_M">
	<g>
		
			<linearGradient id="SVGID_6_" gradientUnits="userSpaceOnUse" x1="395.0749" y1="-2990.4731" x2="395.0749" y2="-3567.8286" gradientTransform="matrix(1 0 0 1 0 4010)">
			<stop  offset="0" style="stop-color:#A2A2A2"/>
			<stop  offset="0.1244" style="stop-color:#858584"/>
			<stop  offset="0.3055" style="stop-color:#60615E"/>
			<stop  offset="0.4861" style="stop-color:#444540"/>
			<stop  offset="0.6636" style="stop-color:#2F312B"/>
			<stop  offset="0.8366" style="stop-color:#23251E"/>
			<stop  offset="1" style="stop-color:#1F211A"/>
		</linearGradient>
		<path class="st11" d="M796.22,856.21c-8.81-6.49-18.01-11.79-28.56-9.53c-15.53,3.32-28.36-10.37-43.47-9.8
			c-2.72,0.1-5.13-3.71-6.05-7.07c-6.53-23.82-22.66-33.41-39.82-42.42c-16.18-8.5-33.06-16.54-48.02-26.67
			c-24.4-16.52-46.82-38.3-68.88-59.89c-1.29-0.57-2.53-1.28-3.71-2.15c-9.67-2.53-14.2-15.96-24.42-17.37
			c-24.82-3.41-39.61-26.01-56.5-44.58c-5.16-7.88-12.02-13.38-18.08-19.91c-11.87-12.81-29.88-9.91-39.84-23.61
			c-14.68-20.19-35.41-24.16-53.22-35.86c-20.47-13.45-41.72-26.29-57.15-48.95c-4.67-5.06-9.33-10.03-16.28-9.08
			c-19.12,2.6-34.83-8.31-50.46-19.43c-6.91,0.23-13.46-0.89-18.87-6.99c-2.68-3.02-5.85-4.81-8.91-0.88
			c-10.19,13.06-22.21,7.77-33.86,5.08c-4.22-0.98-8.38-4.17-12.63-1.78c-15.21,8.55-29.37,2.14-43.32-4.59
			c-2.92-1.41-5.62-2.36-8.19-2.28c-2.65-2.99-5.27-5.82-9.34-5.68c-22.91,0.95-44.26-12.19-67.19-11.28
			c-4.06,1.81-8.11,3.53-12.21,4.96c-3.74-1.89-7.26-4.06-10.02-7.24c-9.95-11.51-17.21-7.54-25.03,2.13c0,4.75,0,9.51,0,14.26
			c0,21.39,0,42.78,0,64.17c0,28.52,0,57.04,0,85.57c0,5.94,0,11.88,0,17.83c4.72,6.63,8.75,5.51,12.89-1.16
			c4.07-6.56,9.15-10.5,16.12-5.94v0.01l0,0c2.89,11.04,0.48,25.21,12.25,31.1c0.91,0.45,1.87,3.27,1.55,4.51
			c-5.67,22.21,7.87,13.24,15.22,14.28c0.97,0,1.94-0.01,2.9-0.01l0,0l0,0c12.23,8.35,16.94,30.55,34.8,28.56l0,0l0,0l0,0
			c17.86,6.29,32.24,17.99,40.49,39.27c1.1,2.83,3.61,6.1,5.44,4.81c14.21-10.06,19.99,7.74,29.51,12.94
			c2.54,13.36,12.47,12.08,20.12,15.12c3.94,1.57,8.18,0.61,11.22,6.21c9.29,17.09,22.04,19.93,38.57,9.61
			c0.1-0.59,0.17-1.18,0.24-1.77c3.54,1.18,6.39,3.7,8.22,8.22c2.48,6.14,7.14,8.66,11.97,7.56c16.64-3.77,30.01,6.6,43.18,15.55
			c5.64,3.83,5.15,1.21,8.78,2.67c12.31,4.94,20.39,13.53,29.82,23.75c1.91,2.07,4.68,5.17,7.87,9.11c2.33,1.14,4.68,0.76,7.1,0.69
			c0.53-0.02,1.06-0.04,1.59-0.05c4.31,9.56,10.3,15.08,22.05,9.22c6-2.99,13.51-0.99,15.84,7.5c3.07,11.16,9.59,11.27,16.72,11.36
			c0.22,0.67,0.44,1.33,0.64,2.03c5.04,1.84,9.21,8.16,14.99,6.25c0.82,3.05,3.3,4.17,5.24,5.92c0.95,0.03,1.9,0.06,2.85,0.1
			c3.86-0.03,7.73-0.05,11.59-0.08l0,0l0.06,0.09c10.41,4.21,21.76-4.41,31.89,3.52l0,0l0,0c4.6,10.59,5.83,24.21,17.77,28.1
			c2.84,0.92,4.42,4.94,2.55,8.75c-5.86,11.97,2.89,9.4,7.06,10.39c11.19,2.67,23.58,2.73,30.64,15.85
			c7.64,14.21,19.11,14.19,30.6,14.95c2.56,0.17,6.95,0.2,5.85-5.03c-1.02-4.85-3.42-9.2,2.59-10.77c4.41-1.15,7.19,2.65,9.72,6.24
			c5.55,7.88,11.75,14.07,20.88,13.54c2.86,10.2,11.99,8.8,17.43,14.21h0.01c12.53-2.51,21.31-10.6,24.93-25.92
			c2.43-10.29,8.01-11.67,15.71-10.24c12.17,2.27,13.81,3.41,16.1,15.52c-5.28,3.69-8.78-8.72-14.36-2.34
			c-1.55,1.77,5.55,38.69,7.58,39.68c3.24,1.57,5.49-1.25,7.9-3.03c9.23-6.84,19.23-10.88,29.88-12.65
			c7.86-1.31,14.52,0.46,17.72,10.69c1.02,3.24,1.19,7.78,4.95,7.45c4.2-0.37,5.48-5.07,5.25-9.2c-0.92-16.1,6.44-23.78,17.8-27.78
			c0.78-1.1,1.25-2.37,1.48-3.77c26.12-3.09,37.13-18.24,33.37-46.11c6.12-5.42,5.67-14.42,4.39-20.82
			c-1.32-6.54-2-12.84-1.89-19.04c4.45-9.54,4.51-21.39,8.14-31.37C797.65,859.56,797.08,857.83,796.22,856.21z"/>
		
			<linearGradient id="SVGID_7_" gradientUnits="userSpaceOnUse" x1="860.1546" y1="-3133.3096" x2="860.1546" y2="-3174.304" gradientTransform="matrix(1 0 0 1 0 4010)">
			<stop  offset="0" style="stop-color:#A2A2A2"/>
			<stop  offset="0.1244" style="stop-color:#858584"/>
			<stop  offset="0.3055" style="stop-color:#60615E"/>
			<stop  offset="0.4861" style="stop-color:#444540"/>
			<stop  offset="0.6636" style="stop-color:#2F312B"/>
			<stop  offset="0.8366" style="stop-color:#23251E"/>
			<stop  offset="1" style="stop-color:#1F211A"/>
		</linearGradient>
		<path class="st12" d="M905.48,837.14c-2.81-2.09-5-2.5-5.06,2.83c-0.31,13.82-10.89,15.06-17.34,21.37
			c-4.34-1.22-6.39-8.1-11.63-7.08c-8.71-3.87-17.63,6.88-25.05,1.73c-9.09-6.31-27.19,5.27-27.15-19.6v-0.01
			c-1.05,0.06-2.09,0.11-3.14,0.17c-10.05,14.75,2.98,21.76,7.08,31.73c3.83,9.3,10.14,9.47,17.32,7.2
			c5.59-1.76,12.27-1.06,16.8-4.64c10.1-8,22.4,6.22,31.48-5.94c3.53-6.14,9.55-7.33,14.38-10.88
			C908.72,849.37,909.3,843.71,905.48,837.14z"/>
	</g>
</g>
<g id="smoke_dome">
	<g class="st0">
		<ellipse class="st2" cx="146.87" cy="857.52" rx="148.8" ry="23.73"/>
		<ellipse class="st2" cx="306.95" cy="837.14" rx="138.22" ry="20.66"/>
		<ellipse class="st2" cx="183.54" cy="810.07" rx="123.41" ry="23.73"/>
		<ellipse class="st2" cx="444.47" cy="793.88" rx="206.62" ry="33.78"/>
		<ellipse class="st2" cx="611.6" cy="757.03" rx="129.76" ry="24.84"/>
		<ellipse class="st2" cx="373.95" cy="757.03" rx="136.1" ry="24.84"/>
		<ellipse class="st2" cx="608.78" cy="821.79" rx="78.98" ry="12"/>
	</g>
</g>
<g id="front_mountains">
	<g>
		<g>
			<g>
				
					<linearGradient id="SVGID_8_" gradientUnits="userSpaceOnUse" x1="679.0319" y1="569.6935" x2="679.0319" y2="-3449.6201" gradientTransform="matrix(1 0 0 1 0 4010)">
					<stop  offset="0" style="stop-color:#C2A7AA"/>
					<stop  offset="6.618307e-03" style="stop-color:#BCA2A5"/>
					<stop  offset="0.0603" style="stop-color:#928083"/>
					<stop  offset="0.1184" style="stop-color:#6C6165"/>
					<stop  offset="0.1804" style="stop-color:#4D484C"/>
					<stop  offset="0.2474" style="stop-color:#333338"/>
					<stop  offset="0.3213" style="stop-color:#202328"/>
					<stop  offset="0.4059" style="stop-color:#12181C"/>
					<stop  offset="0.5103" style="stop-color:#091116"/>
					<stop  offset="0.694" style="stop-color:#070F14"/>
					<stop  offset="0.8286" style="stop-color:#070F0A"/>
					<stop  offset="1" style="stop-color:#070F03"/>
				</linearGradient>
				<path class="st13" d="M1366.58,863.55c0-28.98,0-57.94,0-86.92c-0.63,1.25-1.3,2.45-1.97,3.61c0.44-1.31,1.05-2.55,1.97-3.61
					c2.3-15.06-4.24-30.11,0-45.16c0-16.21,0-32.43-0.01-48.65c0-5.84,0.01-11.67,0.01-17.5c0.01-15.99-0.03-28.57-0.04-31.26
					c-0.07-23.79-0.84-57.96-1.21-73.67c-13.75,13.99-25.65,24.98-34.36,32.75c-10.35,9.22-20.79,17.97-41.66,35.44
					c-5.91,4.95-10.82,9.03-14.2,11.84c-4.12,4.76-8.81,8.56-12.33,14.36c-7.59,12.54-9.98,12.11-17.95-0.74
					c-7.1-11.46-13.18-11.47-18.28,0.98c-1.98,4.82-3.85,7.57-8.17,7.82c-1.41,0.23-2.82,0.42-4.23,0.64
					c-7.2,2.52-14.15,6.2-21.99,5.46c-4.76-0.45-7.45,4.61-13.89,9.58c0,0-17.26,13.38-23.31,15.36c-0.08,0.03-0.7,0.22-1.52,0.54
					c-0.83,0.33-1.65,0.7-2.46,1.11c-4.34,3.97-7.92,9.03-12.58,12.55c-5.35,3.97-9.73,8.93-11.54,16.46
					c-10.11,17.33-20.42,34.26-41.13,32.08c-1.35-0.23-2.7-0.52-4.04-0.8c-4.27-0.24-6.94-6.49-11.8-4.52
					c-7.6,3.97-12.64,11.47-18.01,18.49c-0.88-0.68-2.04-0.67-3.58,0.28c-3.04,2.21-6.09,4.42-9.13,6.62
					c-9,2.01-17.76,7.33-27.21,2.76c-4.13-1.69-8.37-0.51-12.57-0.62c-11.04,0.8-23.05-1.75-30.37,12.21
					c-1.46-4.76-5.17-1.5-8.2-0.67c-1.12-0.08-3.19-0.22-5.78-0.21c-28.12,0.16-40.29,17.53-77.62,32.21
					c-23.59,9.28-30.12,7.55-32.64,6.55c-11.93-4.71-16.32-19.47-24.05-18.01c-4.17,0.79-4.54,5.37-12.03,8.18
					c-5.25,1.98-6.76,0.36-10.31,1.63c-7.81,2.82-9.05,13.78-15.46,37.66c-3.56,13.26-3.29,10.08-5.15,18.01
					c-6.62,28.13-3.78,37.09-12.03,49.12c-2.31,3.38-6.42,8.34-13.74,13.1c-10.86,1.06-16.12,4.71-18.9,8.18
					c-4.05,5.07-2.36,9.22-6.87,13.1c-4.36,3.75-10.25,3.56-18.9,3.28c-11.86-0.38-18.6-0.61-23.44-5.26
					c-5.73-5.51-4.62-12.07-11.99-16.95c-1.27-0.84-2.84-1.43-4.92-1.73c-6.65-0.97-14.75-5.31-20.84-2.35
					c-3.19,1.55-3.52,3.85-6.23,8.01c-8.73,13.43-25.52,24.26-34.29,20.67c-0.47-0.19-0.87-0.41-1.17-0.59
					c-27.15-20.61-39.27-22.87-44.81-19.29c-3.14,2.03-5.22,6.56-9.67,6.6c-3.89,0.04-7.56-3-10.88-7.89
					c-5.15-7.59-11.09-12.19-18.97-14.42c0,0-6.7-2.92-14-8.36c-15.28-11.39-20.23-38.52-38.34-43.37
					c-7.83-2.1-22.13-1.1-30.88,0.71c-2.13,0.45-7.09,1.59-12.44-0.32c-3.86-1.38-6.05-3.68-8.74-6.45
					c-10.66-10.98-16.11-16.54-21.68-20.33c-3.68-2.52-6.41-4.67-12.86-6.44c-10.85-2.98-23.65,1.82-32.69-9.75
					c-2.24-1.83-4.48-3.7-6.73-5.63c-11.33-9.66-21.63-19.45-31-29.16c-12.35-6.24-28.41-12.99-47.89-17.95
					c-14.2-3.61-27.18-5.51-38.3-6.46c-4.08-0.07-9.38-0.45-15.46-1.63c0,0-3.71-0.72-6.87-1.63
					c-17.91-5.16-45.82-44.59-54.98-52.15c-2.76-2.28-5.56-3.97-5.56-3.97c-4.14-2.41-6.99-2.75-16.77-9.45
					c-15.11-10.35-29.4-23.98-37.8-21.79c-0.75,0.2-2.95,0.9-5.15,0c-2.6-1.07-3.4-3.65-5.15-6.7c0,0-0.6-1.04-6.87-8.37
					c-8.27-9.67-21.33-10.88-29.58-21.46c-8.64-11.08-13.07-33.83-16.81-37.19c-1.46-1.31-3.14-2.13-3.14-2.13
					c-1.46-0.71-2.8-1.05-3.73-1.21c-1.22-0.27-3.08-0.51-5.15,0c-3.98,0.98-6.01,4-8.59,6.7c-2.21,2.31-5.76,5.37-11.4,8.06
					c0,11.59,0,23.18,0,34.77c0,35.93,0,71.86,0,107.8c0,26.66,0,53.32,0,79.98c0,10.43,0,20.87,0,31.3c0,18.54,0,37.1,0,55.64
					c0,23.18,0,46.36,0,69.55c-1.34,7.26-0.42,11.72,2.76,13.58v3563.58h1369.43V1016.53c1.11,0,2.22,0,3.33,0
					C1366.9,965.54,1366.74,914.55,1366.58,863.55z"/>
			</g>
		</g>
	</g>
</g>
<g id="illustrations">
</g>
<g id="Layer_1_1_">
</g>
<g id="dome">
	<g>
		<path class="st14" d="M144.07,3859.2c0,0-318.99-22.56,0-54.87s508.22,11.8,508.22,11.8s49.75,13.33,0,24.62
			c-49.75,11.28-190.78,23.59-219.5,21.03C404.08,3859.2,196.89,3866.89,144.07,3859.2z"/>
		<path class="st14" d="M12.45,3826.69c0,0,62.9-15.21,123.41-20.16l-576.97,34.03l-6.64,12.31L12.45,3826.69z"/>
		<rect x="243.04" y="3605.68" class="st15" width="331.99" height="11.8"/>
		<rect x="99.68" y="3607.73" class="st16" width="5.64" height="10.77"/>
		<polygon class="st17" points="334.84,3567.73 337.92,3560.03 336.89,3531.32 340.73,3531.32 342.02,3560.03 343.56,3567.21 		"/>
		
			<linearGradient id="SVGID_9_" gradientUnits="userSpaceOnUse" x1="99.6785" y1="-402.7595" x2="575.0314" y2="-402.7595" gradientTransform="matrix(1 0 0 1 0 4010)">
			<stop  offset="0" style="stop-color:#1E1E1E"/>
			<stop  offset="0.9972" style="stop-color:#675F58"/>
		</linearGradient>
		<path class="st18" d="M154.84,3635.42c0,0-55.49-11.75-55.16-27.65c0.22-10.49,25.55-18.55,55.16-25.75
			c19.9-3.41,45.27-7.19,74.87-10.19c14-1.42,56.03-5.41,111.8-5.64c45.85-0.19,78.76,2.24,103.08,4.1
			c23.49,1.79,43.02,3.88,66.67,9.23c0,0,63.49,12.91,63.77,26.37c0.02,0.93-0.18,1.84-0.18,1.84c-0.83,3.71-4.23,5.85-5.43,6.6
			c-26.81,16.85-53.03,20.06-53.03,20.06c-25.96,7.12-47.22,9.39-66.76,10.95c-20.76,1.66-49.55,3.3-111.2,2.9
			c-47.29-0.3-70.94-0.46-103.59-3.08C202.12,3642.54,174.77,3638.69,154.84,3635.42z"/>
		<path class="st19" d="M154.84,3645.68c0,0-55.49-11.76-55.16-27.65c0.22-10.49,25.55-18.55,55.16-25.75
			c19.9-3.41,45.27-7.19,74.87-10.19c14-1.42,56.03-5.41,111.8-5.64c45.85-0.19,78.76,2.24,103.08,4.1
			c23.49,1.79,43.02,3.88,66.67,9.23c25.91,5.86,63.46,14.35,63.77,26.37c0.33,12.34-38.76,23.06-58.65,28.51
			c-25.96,7.12-47.22,9.39-66.76,10.95c-20.76,1.66-49.55,3.3-111.2,2.9c-47.29-0.3-70.94-0.46-103.59-3.08
			C202.12,3652.8,174.77,3648.95,154.84,3645.68z"/>
		
			<linearGradient id="SVGID_10_" gradientUnits="userSpaceOnUse" x1="284.5775" y1="-396.1075" x2="390.7375" y2="-289.9476" gradientTransform="matrix(1 0 0 1 0 4010)">
			<stop  offset="0" style="stop-color:#090909"/>
			<stop  offset="1" style="stop-color:#423C37"/>
		</linearGradient>
		<path class="st20" d="M279.46,3619.01c0,0,59.92-17.44,115.35,0l2.09,94.88H279.46V3619.01z"/>
		<path class="st21" d="M-444.96,3717.57v6.01l582.87-19.95c0,0,0-4.1-2.56-5.13S-444.96,3717.57-444.96,3717.57z"/>
		<path class="st21" d="M137.91,3703.63c0,0,0.25-4.69,1.92-5.17l-4.49,0.04C135.35,3698.5,137.91,3702.09,137.91,3703.63z"/>
		<path class="st21" d="M248.69,3696.45c0,0-95.39,3.59-110.77,7.18c0,0-0.77-4.18,1.92-5.17s82.7-7.4,108.85-7.53
			s178.47-9.87,348.22,14.75c0.34,1.71,0.68,3.42,1.03,5.13c-29.31-4.23-69.04-9.1-116.41-12.31c-38.5-2.6-67.65-3.14-94.36-3.59
			C351.46,3694.31,304.41,3694.29,248.69,3696.45z"/>
		<path class="st21" d="M249.34,3696.42c0,0-1.74,5.43-0.94,16.32l4.22-0.19c-0.26-2.13-0.43-4.61-0.34-7.38
			c0.11-3.44,0.57-6.44,1.12-8.9L249.34,3696.42z"/>
		
			<linearGradient id="SVGID_11_" gradientUnits="userSpaceOnUse" x1="584.4956" y1="-276.465" x2="588.9184" y2="-276.465" gradientTransform="matrix(1 0 0 1 0 4010)">
			<stop  offset="0" style="stop-color:#1E1E1E"/>
			<stop  offset="1" style="stop-color:#675F58"/>
		</linearGradient>
		<path class="st22" d="M588.46,3739.35c0.3-0.99,0.7-2.82,0.27-5.01c-0.79-4.04-3.89-6.81-4.2-6.61c-0.1,0.06,0.04,0.47,0.14,0.73
			c1.1,2.77,0.17,9.68,0.17,9.68L588.46,3739.35z"/>
		
			<linearGradient id="SVGID_12_" gradientUnits="userSpaceOnUse" x1="137.91" y1="-298.979" x2="-444.96" y2="-298.979" gradientTransform="matrix(1 0 0 1 0 4010)">
			<stop  offset="0" style="stop-color:#1E1E1E"/>
			<stop  offset="1" style="stop-color:#675F58"/>
		</linearGradient>
		<path class="st23" d="M-444.96,3717.57v6.01l582.87-19.95c0,0,0-4.1-2.56-5.13S-444.96,3717.57-444.96,3717.57z"/>
		<path class="st16" d="M137.91,3703.63c0,0,0.25-4.69,1.92-5.17l-4.49,0.04C135.35,3698.5,137.91,3702.09,137.91,3703.63z"/>
		
			<linearGradient id="SVGID_13_" gradientUnits="userSpaceOnUse" x1="137.8179" y1="-310.1342" x2="597.9401" y2="-310.1342" gradientTransform="matrix(1 0 0 1 0 4010)">
			<stop  offset="0" style="stop-color:#1E1E1E"/>
			<stop  offset="1" style="stop-color:#675F58"/>
		</linearGradient>
		<path class="st24" d="M248.69,3696.45c0,0-95.39,3.59-110.77,7.18c0,0-0.77-4.18,1.92-5.17s82.7-7.4,108.85-7.53
			s178.47-9.87,348.22,14.75c0.34,1.71,0.68,3.42,1.03,5.13c-29.31-4.23-69.04-9.1-116.41-12.31c-38.5-2.6-67.65-3.14-94.36-3.59
			C351.46,3694.31,304.41,3694.29,248.69,3696.45z"/>
		
			<linearGradient id="SVGID_14_" gradientUnits="userSpaceOnUse" x1="121.3754" y1="-294.2951" x2="131.1238" y2="-299.9234" gradientTransform="matrix(1 0 0 1 0 4010)">
			<stop  offset="0" style="stop-color:#1E1E1E"/>
			<stop  offset="1" style="stop-color:#675F58"/>
		</linearGradient>
		<path class="st25" d="M125.16,3722.26c0.21-2.87,0.21-6.57-0.51-10.77c-0.51-2.98-1.27-5.56-2.05-7.69c1.63,0,3.26,0,4.9,0
			c0.66,2.14,1.28,4.54,1.77,7.18c0.74,4.01,1,7.66,1.03,10.77C128.58,3721.92,126.87,3722.09,125.16,3722.26z"/>
		
			<linearGradient id="SVGID_15_" gradientUnits="userSpaceOnUse" x1="248.1897" y1="-305.4949" x2="253.4" y2="-305.4949" gradientTransform="matrix(1 0 0 1 0 4010)">
			<stop  offset="0" style="stop-color:#1E1E1E"/>
			<stop  offset="1" style="stop-color:#675F58"/>
		</linearGradient>
		<path class="st26" d="M249.34,3696.42c0,0-1.74,5.43-0.94,16.32l4.22-0.19c-0.26-2.13-0.43-4.61-0.34-7.38
			c0.11-3.44,0.57-6.44,1.12-8.9L249.34,3696.42z"/>
		
			<linearGradient id="SVGID_16_" gradientUnits="userSpaceOnUse" x1="529.09" y1="-299.1924" x2="536.5269" y2="-299.1924" gradientTransform="matrix(1 0 0 1 0 4010)">
			<stop  offset="0" style="stop-color:#1E1E1E"/>
			<stop  offset="1" style="stop-color:#675F58"/>
		</linearGradient>
		<path class="st27" d="M529.09,3703.04c0,0,4.09,1.84,3.89,15.22l3.54,0.47c0,0,0.28-12.69-2.75-15.02
			c-0.51-0.28-1.38-0.67-2.52-0.79C530.36,3702.83,529.61,3702.93,529.09,3703.04z"/>
		
			<linearGradient id="SVGID_17_" gradientUnits="userSpaceOnUse" x1="137.22" y1="-228.9299" x2="-443.6" y2="-228.9299" gradientTransform="matrix(1 0 0 1 0 4010)">
			<stop  offset="0" style="stop-color:#1E1E1E"/>
			<stop  offset="1" style="stop-color:#675F58"/>
		</linearGradient>
		<polygon class="st28" points="137.22,3721.58 137.22,3806.53 -439.75,3840.56 -443.6,3740.2 		"/>
		
			<linearGradient id="SVGID_18_" gradientUnits="userSpaceOnUse" x1="135.86" y1="-240.6044" x2="674.5261" y2="-240.6044" gradientTransform="matrix(1 0 0 1 0 4010)">
			<stop  offset="0" style="stop-color:#1E1E1E"/>
			<stop  offset="1" style="stop-color:#675F58"/>
		</linearGradient>
		<path class="st29" d="M135.86,3721.58v84.95c0,0,234.07-28.39,450.12,0c0,0,92.57,12.39,88.41,22.44v-76.95
			c0,0,1.99-8.39-25.7-15.57c-27.69-7.18-69.75-19.49-203.6-25.13C311.25,3705.68,154.32,3717.48,135.86,3721.58z"/>
		<path class="st15" d="M657.26,3737.99c0,0,5.13-5.64-2.56-13.33s-35.39-14.36-58.98-18.98l1.03,5.13c0,0,42.79,5.13,56.49,17.64
			C656.3,3731.25,657.91,3734.42,657.26,3737.99z"/>
		
			<linearGradient id="SVGID_19_" gradientUnits="userSpaceOnUse" x1="598.6013" y1="417.3882" x2="81.159" y2="118.643" gradientTransform="matrix(1 0 0 1 0 4010)">
			<stop  offset="0" style="stop-color:#675F58"/>
			<stop  offset="1" style="stop-color:#0E0E0D"/>
		</linearGradient>
		<path class="st30" d="M250.74,3834.92c0,0,82.57-26.67,173.09,0c3.05,293.12,6.09,586.23,9.14,879.35
			c-60.61,1.36-121.23,2.71-181.84,4.07C250.99,4423.86,250.86,4129.39,250.74,3834.92z"/>
	</g>
</g>
</svg>
